<svg xmlns="http://www.w3.org/2000/svg" viewBox="0 0 100 100" width="100" height="100"><path fill="#fefdef" d="M55,33c0-4.418,3.582-8,8-8s7,0,7,0V14c0,0-5-1-11-1c-9.941,0-18,8.059-18,18v9H30v14h11v33h14V54h13	l2-14H55C55,40,55,33.718,55,33z"/><path fill="#1f212b" d="M55,88H41c-0.552,0-1-0.448-1-1V55H30c-0.552,0-1-0.448-1-1V40c0-0.552,0.448-1,1-1h10v-8	c0-10.477,8.523-19,19-19c6.03,0,10.988,0.978,11.196,1.02C70.664,13.113,71,13.523,71,14v11c0,0.552-0.448,1-1,1h-7	c-3.86,0-7,3.14-7,7v6h14c0.29,0,0.565,0.126,0.755,0.345c0.19,0.219,0.275,0.51,0.234,0.797l-2,14C68.919,54.634,68.498,55,68,55	H56v32C56,87.552,55.552,88,55,88z M42,86h12V54c0-0.552,0.448-1,1-1h12.133l1.714-12H55c-0.552,0-1-0.448-1-1v-7	c0-4.962,4.038-9,9-9h6v-9.163C67.368,14.565,63.443,14,59,14c-9.374,0-17,7.626-17,17v9c0,0.552-0.448,1-1,1H31v12h10	c0.552,0,1,0.448,1,1V86z"/><path fill="#1f212b" d="M45.5,83c-0.276,0-0.5-0.224-0.5-0.5v-29c0-0.276,0.224-0.5,0.5-0.5s0.5,0.224,0.5,0.5v29	C46,82.776,45.776,83,45.5,83z M45.5,32c-0.276,0-0.5-0.224-0.5-0.5V31c0-7.72,6.28-14,14-14c2.093,0,4.299,0.13,6.557,0.388	c0.274,0.031,0.471,0.279,0.44,0.553s-0.282,0.471-0.553,0.44C63.223,18.128,61.055,18,59,18c-7.168,0-13,5.832-13,13v0.5	C46,31.776,45.776,32,45.5,32z"/><path fill="#1f212b" d="M45.5,41c-0.276,0-0.5-0.224-0.5-0.5v-1c0-0.276,0.224-0.5,0.5-0.5s0.5,0.224,0.5,0.5v1	C46,40.776,45.776,41,45.5,41z"/><path fill="#1f212b" d="M45.5,38c-0.276,0-0.5-0.224-0.5-0.5v-3c0-0.276,0.224-0.5,0.5-0.5s0.5,0.224,0.5,0.5v3	C46,37.776,45.776,38,45.5,38z"/></svg>