<?xml version="1.0" encoding="UTF-8" standalone="no"?>
<svg
   xmlns:svg="http://www.w3.org/2000/svg"
   xmlns="http://www.w3.org/2000/svg"
   xmlns:xlink="http://www.w3.org/1999/xlink"
   version="1.1"
   width="216"
   height="43"
   fill="#3b5998"
   id="svg12">
  <path
     d="m 111.23051,20.88668 c -1.78418,0 -3.07031,0.584961 -4.37403,1.181152 v 13.48584 c 1.24903,0.11914 1.96485,0.11914 3.15039,0.11914 4.28223,0 4.86915,-1.960937 4.86915,-4.699218 v -6.441407 c 0,-2.021484 -0.6709,-3.645507 -3.64551,-3.645507 z M 13.11918,42.461875 H 4.371621 V 9.610312 c 0,-5.952636 2.467285,-9.492187 9.479004,-9.492187 h 5.837891 V 7.415977 H 16.03959 c -2.729981,0 -2.909668,1.019531 -2.909668,2.922851 z M 0,21.287559 v -7.296387 h 19.729533 l -0.773437,7.296387 z m 34.265176,3.848147 c 0,-2.974121 -0.340821,-3.848144 -4.915528,-3.848144 h -7.47998 l 0.731445,-7.296387 h 8.17627 c 10.038086,0 12.238769,3.170898 12.238769,11.203125 v 17.322262 0 h -7.290527 l -0.315918,-1.84375 c -3.329102,1.84375 -6.300293,2.142579 -8.260254,2.142579 -5.34668,0 -8.193359,-3.572266 -8.193359,-8.511719 0,-5.828125 3.320801,-7.908203 9.262207,-7.908203 H 35 v 5.841794 h -4.638144 c -1.847169,0 -2.65918,0.34375 -2.65918,1.951171 0,1.597657 0.753906,2.427735 2.417969,2.427735 1.785156,0 2.841796,-0.582031 4.144531,-1.179688 z m 33.543945,-3.312991 c -4.537109,-0.777344 -5.839844,-0.948242 -8.022949,-0.948242 -3.921387,0 -5.106445,0.865234 -5.106445,4.194824 v 6.298828 c 0,3.330078 1.185058,4.199219 5.106445,4.199219 2.183105,0 3.48584,-0.173828 8.022949,-0.955078 v 7.117187 c -3.974121,0.890625 -6.562988,1.125 -8.751465,1.125 -9.392089,0 -13.125488,-4.939453 -13.125488,-12.074219 v -5.111328 c 0,-7.141113 3.733398,-12.088867 13.125488,-12.088867 2.188477,0 4.777344,0.235352 8.751465,1.129883 z m 11.333989,9.54541 c 0,3.330078 1.18603,4.199219 5.10644,4.199219 3.52441,0 5.67529,-0.173828 10.2041,-0.955078 v 7.117187 c -4.36767,0.890625 -6.64355,1.125 -10.9292,1.125 -9.39257,0 -13.127926,-4.939453 -13.127926,-12.074219 v -5.84375 c 0,-6.242675 2.771486,-11.356445 12.395996,-11.356445 9.62451,0 12.39258,5.054199 12.39258,11.356445 v 5.84375 H 79 v -5.84375 h 7.43754 v -1.134765 c 0,-2.019532 -0.67774,-3.650879 -3.64502,-3.650879 -2.9707,0 -3.64941,1.631347 -3.64941,3.650879 z m 44.479,-0.453125 c 0,6.896484 -1.9707,11.925781 -13.91113,11.925781 -4.31153,0 -6.84082,-0.378906 -11.59961,-1.111328 V 2.309043 l 8.74511,-1.459473 v 13.789063 c 1.88965,-0.702149 4.33594,-1.058594 6.5625,-1.058594 8.7461,0 10.20313,3.920898 10.20313,10.22168 z m 67.2998,11.546875 h -8.74804 V 2.309043 l 8.74804,-1.459473 z m 17.4961,0 h -9.47949 l -8.7087,-14.538181 8.7087,-13.932522 h 9.47949 l -8.75196,13.867187"
     id="path4" />
  <path
     d="m 138.89359,20.88668 c -2.97558,0 -4.00683,1.624023 -4.00683,3.645507 v 7.378907 c 0,2.027343 1.03125,3.65625 4.00683,3.65625 2.96778,0 4.00684,-1.628907 4.00684,-3.65625 v -7.378907 c 0,-2.021484 -1.03906,-3.645507 -4.00684,-3.645507 z m 12.76172,10.178711 c 0,5.949218 -2.45605,11.71875 -12.73242,11.71875 -10.28125,0 -12.7832,-5.769532 -12.7832,-11.71875 V 25.32125 c 0,-5.952148 2.50195,-11.722656 12.7832,-11.722656 10.27637,0 12.73242,5.770508 12.73242,11.722656"
     id="path6" />
  <use
     xlink:href="#path6"
     transform="translate(28.0127)"
     id="use8" />
  <path
     d="m 213.34,37.47 a 2.67,2.71 0 0 0 -2.66,2.7 2.67,2.71 0 0 0 2.66,2.71 2.67,2.71 0 0 0 2.67,-2.71 2.67,2.71 0 0 0 -2.67,-2.7 z m 0.01,0.42 a 2.16,2.29 0 0 1 2.17,2.28 2.16,2.29 0 0 1 -2.17,2.29 2.16,2.29 0 0 1 -2.16,-2.29 2.16,2.29 0 0 1 2.16,-2.28 z m -0.5,3.85 h -0.48 v -3.01 c 0.25,-0.04 0.49,-0.07 0.85,-0.07 0.45,0 0.75,0.09 0.93,0.22 0.18,0.14 0.28,0.34 0.28,0.63 0,0.4 -0.27,0.63 -0.59,0.73 v 0.02 c 0.26,0.05 0.44,0.29 0.5,0.74 0.07,0.46 0.15,0.64 0.2,0.74 h -0.51 c -0.07,-0.1 -0.14,-0.37 -0.2,-0.77 -0.07,-0.38 -0.27,-0.53 -0.65,-0.53 h -0.38 v -0.37 h 0.39 c 0.4,0 0.73,-0.14 0.73,-0.51 0,-0.27 -0.19,-0.53 -0.73,-0.53 -0.15,0 -0.26,0.01 -0.34,0.02"
     id="path10" />
</svg>
